<svg id="Слой_1" data-name="Слой 1" xmlns="http://www.w3.org/2000/svg" viewBox="42 57.15 66 90.78">   <defs>     <style>       .cls-1 {         fill: #333333; /* Set fill color to #333333 */         fill-rule: evenodd;       }     </style>   </defs>   <title>Монтажная область 25</title>   <path class="cls-1" d="M42.48,145.66,42,66.56l15,.25c2.78-13.35,23.11-12.52,24.85.42l25.81.44L108,127,89.14,147.91ZM101.91,73l-34.5-.41L68.05,67l8.2.14c-2.39-6.84-13.57-4.33-13.6,2.43,0,4.85.15,24.13.11,39.37,0,6.06,10.12,7.21,10-.54,0-1.88-.42-27.95-.42-27.95l5.57.24s.8,26.3.87,28.27c.51,14.17-21.71,13.72-21.94.43-.32-19.42-.22-29.07-.13-36.95l-9.35-.11.94,67.87,35.34,2.09L83.93,122l18.52.48Z"/> </svg>