<svg id="Слой_1" data-name="Слой 1" xmlns="http://www.w3.org/2000/svg" viewBox="22.47 64.3 105.23 82.93">   <defs>     <style>       .cls-1 {         fill: #ff0000; /* Set fill color to red */         fill-rule:evenodd;       }     </style>   </defs>   <title>Монтажная область 58</title>   <path class="cls-1" d="M119.7,76.08l-2.64,10.26-13.18,0,.77,9.56L118.5,96l-.22,8.76-12.92.07,3.39,42.38-14.9-.06-1.4-42.25L58,105.12l-1,41.92-14.75,0,2.9-41.8-11.53.06V95.37l12.21.09.63-9-12.82,0-3.4-10.42a17.55,17.55,0,0,1-5.67-1.63l-2.1-10.1c16.29,6.38,89.61,5.27,105.2.09l-1.39,9.84C125.18,75,122.9,75.56,119.7,76.08ZM58.45,86.45l-.23,9.11,11.55.09.28-9.22Zm33.39-.06-11.11,0-.09,9.33,11.51.09Z"/> </svg>